<svg xmlns="http://www.w3.org/2000/svg"  viewBox="360 68 265 260" xmlns:xlink="http://www.w3.org/1999/xlink">
	<defs>
		<circle id="a" cx="128" cy="128" r="128" fill="#FFF"/>
	</defs>
	<g fill="none">
		<g>
			<g transform="translate(-16 -21) translate(378 93)">
				<mask id="b"><use xlink:href="#a"/></mask>
				<use stroke="#FFF" xlink:href="#a"/>
				<path fill="#019875" d="M-29 198h314v62H-29z" mask="url(#b)"/>
				<path fill="#333D45" d="M168.04 92.97c-.85-.32-1.46-1.05-1.62-1.94-.54-3.1-2.07-10.57-4.86-15.9-2.8-5.35-14.2-14.73-19.06-18.58-1.4-1.1-3.48-.47-4.02 1.23-.66 2.1-1.13 5.6-.58 11.4.94 9.82 9.16 19.65 12.67 23.44.9.96.9 2.42.05 3.4-.78.88-2.06 1.12-3.1.57-3.13-1.65-9.66-4.9-13.22-5.33-3.54-.44-18.54 1.24-26.12 2.15-2.1.25-3 2.8-1.52 4.3 4.22 4.2 13.77 10.5 33.5 11.12 1.32.05 2.4 1.1 2.46 2.42.14 3.08-.28 8.08-4.42 8.08-6 0-21.3-3.7-30.86-2.98-11.98.9-28.15 13.14-31.75 19.1-3.6 5.98-8.7 14.64-7.8 26.3.9 11.64 3.3 17.6 3.3 17.9 0 .3-8.4 2.1-8.1 6.58.3 4.48 1.8 9.26 7.8 11.64 6 2.4 18.27-2.1 18.57-3.28.3-1.2 5.4 3.17 13.48 3.98 6.95.68 34.3.2 41.8.04 1.2-.03 2.2-.88 2.45-2.04.46-2.17-2.4-5.9-4.56-6.1 0 0-13.03-2.45-14.23-.06 0 0 15.6-8.07 15.3-10.16-.3-2.1 4.48 15.24 7.18 17.33 2.2 1.68 10.3 1.5 13.28 1.4.76-.04 1.46-.4 1.92-1.02.92-1.2 2.1-3.36.68-5.17-1.23-1.56-3.98-2.1-6.06-2.3-1.43-.13-2.48-1.4-2.3-2.8l1.95-16.65c.07-.6.36-1.16.8-1.57 2.68-2.45 12.28-11.43 14.6-15.8l2.4-4.5c.2-.38.3-.8.3-1.2v-15.86c0-.88.44-1.7 1.2-2.15 1.8-1.14 5.25-3.42 7.18-5.55 2.7-2.98 4.8-5.08 4.5-5.97-.17-.47-.15-1.28-.1-1.94.04-.52.24-1.04.6-1.43.47-.52.93-1.5-.48-2.9-2.13-2.08-7.82-9.25-9.02-11.94-.97-2.18-10.56-5.92-14.2-7.26z" mask="url(#b)"/>
			</g>
		</g>
	</g>
</svg>
